<svg width="981" height="981" viewBox="0 0 981 981" fill="none" xmlns="http://www.w3.org/2000/svg">
<path d="M0.60791 490.804C0.60791 220.076 220.076 0.607849 490.804 0.607849V0.607849C761.532 0.607849 981 220.076 981 490.804V490.804C981 761.532 761.532 981 490.804 981V981C220.076 981 0.60791 761.532 0.60791 490.804V490.804Z" fill="#12012E"/>
<path d="M693.55 263.215C687.9 236.365 679 205.865 664.7 197.615C650.35 189.365 619.15 196.665 593.05 205.215C541.5 222.065 501.45 249.815 467.1 292.465C422.9 347.315 406.85 389.515 401.2 409.715L342.05 411.316L324.3 581.216L409.85 529.615L504.2 584.115L502.3 683.966L640.55 583.615L612.35 531.615C627.05 516.615 655.55 481.615 680.95 415.915C700.7 364.815 704.75 316.315 693.55 263.215ZM553.7 571.765L395.4 480.365L365.75 503.166L374.75 445.666L419.5 445.816L435.6 446.066L436.7 432.566C436.95 430.716 443.45 384.165 499.4 316.215C530.45 278.515 566.95 254.565 614.15 240.865C622.85 238.315 633.3 236.015 643.1 234.115C646.35 243.565 649.5 253.715 651.7 262.565C663.45 310.315 660.95 353.865 643.85 399.615C613 482.065 575.9 510.965 574.45 512.115L563.5 519.715L594.1 572.316L548.8 608.865L553.7 571.765Z" fill="#F9F9F9"/>
<path d="M619.6 275.565C598.55 263.415 571.5 270.665 559.35 291.715C547.2 312.765 554.45 339.765 575.5 351.965C596.55 364.115 623.6 356.865 635.75 335.815C647.9 314.715 640.65 287.715 619.6 275.565ZM589.1 328.315C581.05 323.665 578.3 313.315 582.9 305.265C587.55 297.215 597.9 294.465 605.95 299.115C614 303.765 616.75 314.115 612.1 322.165C607.5 330.215 597.15 332.965 589.1 328.315Z" fill="#F9F9F9"/>
<path d="M408.71 571.247L416.48 598.308L368.901 611.056" stroke="#F9F9F9" stroke-width="10" stroke-linecap="round" stroke-linejoin="round"/>
<path d="M354.98 603.019C356.605 609.083 362.837 612.681 368.901 611.056C374.965 609.432 378.564 603.199 376.939 597.135C375.314 591.071 369.081 587.472 363.017 589.097C356.953 590.722 353.355 596.955 354.98 603.019Z" stroke="#F9F9F9" stroke-width="10" stroke-linecap="round" stroke-linejoin="round"/>
<path d="M311.524 637.023L339.524 639.955L333.523 688.846" stroke="#F9F9F9" stroke-width="10" stroke-linecap="round" stroke-linejoin="round"/>
<path d="M320.856 698.743C327.087 699.508 332.758 695.077 333.523 688.845C334.288 682.614 329.857 676.943 323.626 676.178C317.395 675.413 311.723 679.844 310.958 686.076C310.194 692.307 314.625 697.978 320.856 698.743Z" stroke="#F9F9F9" stroke-width="10" stroke-linecap="round" stroke-linejoin="round"/>
<g clip-path="url(#clip0_7_108)">
<path d="M395.976 677.702L423.059 630.792L470.527 648.575L443.444 695.485" stroke="#F9F9F9" stroke-width="10" stroke-linecap="round" stroke-linejoin="round"/>
<path d="M378.901 682.277C384.879 685.729 392.524 683.681 395.976 677.702C399.428 671.723 397.379 664.078 391.401 660.627C385.422 657.175 377.777 659.223 374.325 665.202C370.874 671.181 372.922 678.825 378.901 682.277Z" stroke="#F9F9F9" stroke-width="10" stroke-linecap="round" stroke-linejoin="round"/>
<path d="M426.369 700.06C432.347 703.512 439.992 701.464 443.444 695.485C446.896 689.506 444.847 681.862 438.869 678.41C432.89 674.958 425.245 677.006 421.793 682.985C418.341 688.964 420.39 696.609 426.369 700.06Z" stroke="#F9F9F9" stroke-width="10" stroke-linecap="round" stroke-linejoin="round"/>
</g>
<path d="M402.781 743.186L395 734.416L410.584 721.078" stroke="#F9F9F9" stroke-width="4" stroke-linecap="round" stroke-linejoin="round"/>
<path d="M417.258 721.596C415.558 719.61 412.57 719.378 410.584 721.078C408.598 722.778 408.366 725.766 410.066 727.752C411.765 729.738 414.754 729.97 416.74 728.27C418.726 726.571 418.958 723.582 417.258 721.596Z" stroke="#F9F9F9" stroke-width="4" stroke-linecap="round" stroke-linejoin="round"/>
<path d="M298.023 724.358L308.745 729.1L300.116 747.709" stroke="#F9F9F9" stroke-width="4" stroke-linecap="round" stroke-linejoin="round"/>
<path d="M293.83 750.012C296.202 751.111 299.016 750.08 300.116 747.709C301.216 745.337 300.185 742.523 297.813 741.423C295.441 740.323 292.627 741.354 291.527 743.726C290.427 746.098 291.458 748.912 293.83 750.012Z" stroke="#F9F9F9" stroke-width="4" stroke-linecap="round" stroke-linejoin="round"/>
<path d="M317.718 764.501L326.182 768.244L319.37 782.934" stroke="#F9F9F9" stroke-width="3" stroke-linecap="round" stroke-linejoin="round"/>
<path d="M314.408 784.752C316.281 785.62 318.502 784.806 319.37 782.934C320.239 781.062 319.425 778.84 317.553 777.972C315.68 777.104 313.459 777.918 312.591 779.79C311.722 781.662 312.536 783.884 314.408 784.752Z" stroke="#F9F9F9" stroke-width="3" stroke-linecap="round" stroke-linejoin="round"/>
<path d="M343.737 744.811L346.607 712.438L376.931 710.107L374.061 742.48" stroke="#F9F9F9" stroke-width="7" stroke-linecap="round" stroke-linejoin="round"/>
<path d="M335.604 751.62C339.73 751.985 343.371 748.937 343.737 744.811C344.103 740.685 341.054 737.044 336.928 736.678C332.803 736.312 329.161 739.361 328.795 743.487C328.43 747.613 331.478 751.254 335.604 751.62Z" stroke="#F9F9F9" stroke-width="7" stroke-linecap="round" stroke-linejoin="round"/>
<path d="M365.928 749.289C370.054 749.654 373.695 746.606 374.061 742.48C374.427 738.354 371.379 734.713 367.253 734.347C363.127 733.981 359.486 737.03 359.12 741.156C358.754 745.282 361.802 748.923 365.928 749.289Z" stroke="#F9F9F9" stroke-width="7" stroke-linecap="round" stroke-linejoin="round"/>
<defs>
<clipPath id="clip0_7_108">
<rect width="100" height="100" fill="white" transform="translate(401 594) rotate(30)"/>
</clipPath>
</defs>
</svg>
