<svg width="24" height="24" viewBox="0 0 24 24" fill="none" xmlns="http://www.w3.org/2000/svg">
<path fill-rule="evenodd" clip-rule="evenodd" d="M11.3861 1.21065C11.7472 0.929784 12.2528 0.929784 12.6139 1.21065L21.6139 8.21065C21.8575 8.4001 22 8.69141 22 9V20C22 20.7957 21.6839 21.5587 21.1213 22.1213C20.5587 22.6839 19.7957 23 19 23H15C14.4477 23 14 22.5523 14 22C14 21.4477 14.4477 21 15 21H19C19.2652 21 19.5196 20.8946 19.7071 20.7071C19.8946 20.5196 20 20.2652 20 20V9.48908L12 3.26686L4 9.48908V20C4 20.2652 4.10536 20.5196 4.29289 20.7071C4.48043 20.8946 4.73478 21 5 21H9C9.55228 21 10 21.4477 10 22C10 22.5523 9.55228 23 9 23H5C4.20435 23 3.44129 22.6839 2.87868 22.1213C2.31607 21.5587 2 20.7957 2 20V9C2 8.69141 2.14247 8.4001 2.38606 8.21065L11.3861 1.21065Z" fill="#6521FF"/>
<path fill-rule="evenodd" clip-rule="evenodd" d="M8 12C8 11.4477 8.44772 11 9 11H15C15.5523 11 16 11.4477 16 12V22C16 22.5523 15.5523 23 15 23C14.4477 23 14 22.5523 14 22V13H10V22C10 22.5523 9.55228 23 9 23C8.44772 23 8 22.5523 8 22V12Z" fill="#6521FF"/>
<path fill-rule="evenodd" clip-rule="evenodd" d="M15.5001 10.5922C15.5001 9.98976 15.7559 9.50141 16.0715 9.50141H19.5001C19.8156 9.50141 20.0715 9.98976 20.0715 10.5922V21.5C20.0715 21.5 19.8156 21.5 19.5001 21.5C19.1845 21.5 18.9286 21.5 18.9286 21.5H16.9286C16.9286 21.5 16.3572 21.5 16.0715 21.5C15.7559 21.5 15.5001 21.557 15.5001 20.9546V10.5922Z" fill="#6521FF"/>
<path fill-rule="evenodd" clip-rule="evenodd" d="M3.72003 10.2939C3.72003 9.69151 3.97587 9.20316 4.29146 9.20316H7.72003C8.03562 9.20316 8.29146 9.69151 8.29146 10.2939V21.2017C8.29146 21.2017 8.03562 21.2017 7.72003 21.2017C7.40444 21.2017 7.14861 21.2017 7.14861 21.2017H5.1486C5.1486 21.2017 4.57718 21.2017 4.29146 21.2017C3.97587 21.2017 3.72003 21.2587 3.72003 20.6563V10.2939Z" fill="#6521FF"/>
<path fill-rule="evenodd" clip-rule="evenodd" d="M3.72003 10.2939C3.72003 9.69151 3.97587 9.20316 4.29146 9.20316H7.72003C8.03562 9.20316 8.29146 9.69151 8.29146 10.2939V21.2017C8.29146 21.2017 8.03562 21.2017 7.72003 21.2017C7.40444 21.2017 7.14861 21.2017 7.14861 21.2017H5.1486C5.1486 21.2017 4.57718 21.2017 4.29146 21.2017C3.97587 21.2017 3.72003 21.2587 3.72003 20.6563V10.2939Z" fill="#6521FF"/>
<path fill-rule="evenodd" clip-rule="evenodd" d="M17 6C17.5523 5.99548 19.9955 7.44773 20 8L21 9C21.0045 9.55226 17.6173 12.0034 17.065 12.0079L7.06536 12.0896C6.51309 12.0942 6.06173 11.6501 6.05722 11.0978L5.00001 11L3.5 10L4.5 8L5 8C5.00205 8.24999 6.50452 7.05226 6.5 6.5C6.49549 5.94773 11.4477 3.00451 12 3L17 6Z" fill="#6521FF"/>
</svg>
